<?xml version="1.0" encoding="UTF-8" standalone="no"?>
<!-- Created with Inkscape (http://www.inkscape.org/) -->

<svg
   version="1.1"
   id="svg41"
   xml:space="preserve"
   width="1221.1193"
   height="304.26425"
   viewBox="0 0 1221.1192 304.26424"
   sodipodi:docname="logo.svg"
   inkscape:version="1.1.2 (b8e25be8, 2022-02-05)"
   xmlns:inkscape="http://www.inkscape.org/namespaces/inkscape"
   xmlns:sodipodi="http://sodipodi.sourceforge.net/DTD/sodipodi-0.dtd"
   xmlns:xlink="http://www.w3.org/1999/xlink"
   xmlns="http://www.w3.org/2000/svg"
   xmlns:svg="http://www.w3.org/2000/svg"><defs
     id="defs45"><color-profile
       name="Display"
       xlink:href="file:///Library/ColorSync/Profiles/Displays/Apple%20TV-6161706C-6169-7270-0000-303900000000.icc"
       id="color-profile2413" /><color-profile
       name="ACES-CG-Linear--Academy-Color-Encoding-System-AP1-"
       xlink:href="file:///System/Library/ColorSync/Profiles/ACESCG%20Linear.icc"
       id="color-profile2415" /><clipPath
       clipPathUnits="userSpaceOnUse"
       id="clipPath55"><path
         d="M 0,1082 H 1920 V 0 H 0 Z"
         id="path53" /></clipPath></defs><sodipodi:namedview
     id="namedview43"
     pagecolor="#ffffff"
     bordercolor="#666666"
     borderopacity="1.0"
     inkscape:pageshadow="2"
     inkscape:pageopacity="0.0"
     inkscape:pagecheckerboard="0"
     showgrid="true"
     inkscape:zoom="0.62245837"
     inkscape:cx="126.91612"
     inkscape:cy="140.57165"
     inkscape:window-width="1280"
     inkscape:window-height="675"
     inkscape:window-x="0"
     inkscape:window-y="25"
     inkscape:window-maximized="0"
     inkscape:current-layer="g51"
     fit-margin-top="0"
     fit-margin-left="0"
     fit-margin-right="0"
     fit-margin-bottom="0"><inkscape:grid
       type="xygrid"
       id="grid1453"
       originx="-1130.1263"
       originy="-452.35319" /></sodipodi:namedview><g
     id="g47"
     inkscape:groupmode="layer"
     inkscape:label="Estrato Cloud source file"
     transform="matrix(1.3333333,0,0,-1.3333333,-1130.1264,990.31345)"><g
       id="g49"
       style="display:inline"><g
         id="g51"
         clip-path="url(#clipPath55)"><g
           id="g1256"
           transform="translate(-1.3806734,0.41391193)"><g
             id="g57"
             transform="translate(1051.4077,669.5801)"
             style="display:inline;fill:#ffffff"><path
               d="m 0,0 c -20.13,43.024 -67.961,65.254 -113.727,52.856 l -4.322,15.957 c 25.587,6.931 53.025,4.637 77.256,-6.463 C -16.276,51.12 3.528,31.465 14.973,7.006 Z"
               style="fill:#ffffff;fill-opacity:1;fill-rule:nonzero;stroke:none"
               id="path59" /></g><g
             id="g61"
             transform="translate(861.0728,631.083)"
             style="display:inline"><path
               d="m 0,0 -7.574,0.217 c 0.573,19.995 6.604,39.471 17.443,56.322 11.143,17.322 26.939,31.114 45.683,39.884 5.776,2.703 11.8,4.911 17.905,6.565 l 1.981,-7.313 C 69.754,94.135 64.144,92.078 58.763,89.561 23.627,73.122 1.11,38.804 0,0"
               style="fill:#999999;fill-opacity:1;fill-rule:nonzero;stroke:none"
               id="path63" /></g><g
             id="g65"
             transform="translate(963.1362,514.123)"
             style="display:inline;fill:#ffffff"><path
               d="m 0,0 c -13.109,0 -26.253,2.288 -38.944,6.889 -28.643,10.383 -51.529,31.3 -64.441,58.897 -7.63,16.307 -11.24,33.64 -10.728,51.519 l 16.525,-0.473 c -0.437,-15.275 2.65,-30.093 9.176,-44.041 11.041,-23.597 30.61,-41.482 55.102,-50.361 24.492,-8.878 50.976,-7.688 74.573,3.352 L 48.268,10.81 C 32.899,3.618 16.479,0 0,0"
               style="fill:#ffffff;fill-opacity:1;fill-rule:nonzero;stroke:none"
               id="path67" /></g><g
             id="g69"
             transform="translate(885.1582,602.2847)"
             style="display:inline"><path
               d="m 0,0 c -9.876,29.704 -2.269,61.898 19.852,84.019 32.012,32.012 84.099,32.012 116.112,0 l 5.845,-5.845 -58.057,-58.056 -11.689,11.689 46,46 C 92.364,97.745 55.129,95.917 31.541,72.329 13.873,54.661 7.797,28.944 15.686,5.215 Z"
               style="fill:#8bca1f;fill-opacity:1;fill-rule:nonzero;stroke:none"
               id="path71" /></g><g
             id="g73"
             transform="translate(949.1094,551.8789)"
             style="display:inline"><path
               d="m 0,0 c -15.557,2.829 -29.712,10.256 -40.933,21.478 -8.63,8.63 -14.946,18.837 -18.77,30.34 l 7.189,2.391 c 3.45,-10.375 9.149,-19.584 16.938,-27.374 C -25.449,16.708 -12.678,10.007 1.356,7.454 Z"
               style="fill:#999999;fill-opacity:1;fill-rule:nonzero;stroke:none"
               id="path75" /></g><g
             id="g77"
             transform="translate(963.0327,546.1445)"
             style="display:inline"><path
               d="m 0,0 c -4.895,0 -9.821,0.437 -14.725,1.329 l 2.959,16.265 c 21.204,-3.86 42.949,2.925 58.166,18.142 10.001,10 16.391,22.655 18.479,36.596 L 81.227,69.883 C 78.611,52.417 70.61,36.568 58.089,24.046 42.558,8.514 21.596,0 0,0"
               style="fill:#8bca1f;fill-opacity:1;fill-rule:nonzero;stroke:none"
               id="path79" /></g><g
             id="g81"
             transform="translate(1044.1108,612.272)"
             style="display:inline"><path
               d="m 0,0 c -4.41,-4.41 -11.561,-4.41 -15.971,0 -4.41,4.41 -4.41,11.561 0,15.971 4.41,4.41 11.561,4.41 15.971,0 C 4.41,11.561 4.41,4.41 0,0"
               style="fill:#8bca1f;fill-opacity:1;fill-rule:nonzero;stroke:none"
               id="path83" /></g><g
             id="g85"
             transform="translate(1021.6094,527.4277)"
             style="display:inline;fill:#ffffff"><path
               d="m 0,0 c -4.411,-4.41 -11.561,-4.41 -15.971,0 -4.41,4.411 -4.41,11.562 0,15.971 4.41,4.41 11.56,4.41 15.971,0 C 4.41,11.562 4.41,4.411 0,0"
               style="fill:#ffffff;fill-opacity:1;fill-rule:nonzero;stroke:none"
               id="path87" /></g><g
             id="g89"
             transform="translate(1067.7163,662.1782)"
             style="display:inline;fill:#ffffff"><path
               d="m 0,0 c -4.41,-4.41 -11.561,-4.41 -15.971,0 -4.41,4.41 -4.41,11.561 0,15.971 4.41,4.41 11.561,4.41 15.971,0 C 4.41,11.561 4.41,4.41 0,0"
               style="fill:#ffffff;fill-opacity:1;fill-rule:nonzero;stroke:none"
               id="path91" /></g><g
             id="g93"
             transform="translate(971.0513,620.2617)"
             style="display:inline"><path
               d="m 0,0 c -4.41,-4.41 -11.561,-4.41 -15.971,0 -4.41,4.41 -4.41,11.561 0,15.971 4.41,4.41 11.561,4.41 15.971,0 C 4.41,11.561 4.41,4.41 0,0"
               style="fill:#8bca1f;fill-opacity:1;fill-rule:nonzero;stroke:none"
               id="path95" /></g></g><g
           id="g1272"
           transform="translate(491.80623,169.24764)"
           style="fill:#ffffff"><g
             id="g311"
             transform="translate(708.146,479.7305)"
             style="display:inline;fill:#ffffff"><path
               d="m 0,0 v -8.539 h -49.432 v -17.199 h 30.189 v -8.058 H -49.432 V -53.521 H 0.48 V -62.06 H -59.774 V 0 Z"
               style="fill:#ffffff;fill-opacity:1;fill-rule:nonzero;stroke:none"
               id="path313" /></g><g
             id="g315"
             transform="translate(754.6938,471.1914)"
             style="display:inline;fill:#ffffff"><path
               d="m 0,0 v -17.439 h 38.727 c 2.406,0 8.298,0 11.425,-3.127 2.887,-2.887 3.007,-8.299 3.007,-10.584 v -8.78 c 0,-3.488 -0.842,-8.299 -3.007,-10.584 -2.645,-2.646 -8.177,-3.007 -11.425,-3.007 H 2.525 c -3.367,0 -8.779,0.361 -11.424,3.007 -2.767,2.767 -3.127,8.299 -3.127,11.666 v 1.684 l 9.621,2.285 v -10.102 h 45.943 v 19.002 H 4.811 c -3.728,0 -8.419,0.121 -11.305,3.007 -2.285,2.285 -3.127,6.856 -3.127,10.223 v 7.697 c 0,3.489 0.722,8.179 3.127,10.584 2.886,2.886 7.577,3.007 11.305,3.007 h 33.074 c 3.368,0 8.299,-0.121 11.185,-2.767 3.127,-2.766 3.368,-7.457 3.368,-10.824 V -6.375 L 43.538,-8.9 V 0 Z"
               style="fill:#ffffff;fill-opacity:1;fill-rule:nonzero;stroke:none"
               id="path317" /></g><g
             id="g319"
             transform="translate(866.9097,417.6709)"
             style="fill:#ffffff"><path
               d="M 0,0 H -10.343 V 53.521 H -38.727 V 62.06 H 28.504 V 53.521 H 0 Z"
               style="fill:#ffffff;fill-opacity:1;fill-rule:nonzero;stroke:none"
               id="path321" /></g><g
             id="g323"
             transform="translate(935.2241,471.6719)"
             style="fill:#ffffff"><path
               d="m 0,0 v -21.769 h 35.721 c 1.443,0 3.607,0 5.05,1.203 1.564,1.323 1.685,3.488 1.685,5.171 v 9.021 c 0,1.684 -0.121,3.849 -1.685,5.172 C 39.328,0 37.164,0 35.721,0 Z m 39.689,8.059 c 4.811,0 8.179,-1.083 9.983,-2.767 2.887,-2.646 3.127,-7.216 3.127,-9.261 v -13.469 c 0,-2.166 -0.24,-6.255 -2.767,-8.901 -2.765,-2.887 -7.456,-3.127 -10.343,-3.127 H 30.067 L 58.933,-54.001 H 43.538 L 18.281,-29.827 H 0 v -24.174 h -10.343 v 62.06 z"
               style="fill:#ffffff;fill-opacity:1;fill-rule:nonzero;stroke:none"
               id="path325" /></g><g
             id="g327"
             transform="translate(1070.8931,441.0029)"
             style="display:inline;fill:#ffffff"><path
               d="M 0,0 -16.718,31.631 -33.435,0 Z m -10.944,38.728 34.517,-62.06 H 12.147 L 4.209,-8.058 h -41.974 l -7.937,-15.274 h -10.224 l 33.916,62.06 z"
               style="fill:#ffffff;fill-opacity:1;fill-rule:nonzero;stroke:none"
               id="path329" /></g><g
             id="g331"
             transform="translate(1142.5776,417.6709)"
             style="display:inline;fill:#ffffff"><path
               d="M 0,0 H -10.343 V 53.521 H -38.727 V 62.06 H 28.504 V 53.521 H 0 Z"
               style="fill:#ffffff;fill-opacity:1;fill-rule:nonzero;stroke:none"
               id="path333" /></g><path
             d="m 1261.286,471.191 h -51.235 V 426.21 h 51.235 z m -61.578,-6.133 c 0,2.405 0,8.539 3.126,11.666 2.887,2.885 7.818,3.006 11.426,3.006 h 42.937 c 3.247,0 8.779,-0.361 11.425,-3.006 2.646,-2.647 3.006,-8.299 3.006,-11.666 v -32.714 c 0,-3.367 -0.36,-9.021 -3.006,-11.666 -2.646,-2.647 -8.178,-3.007 -11.425,-3.007 h -42.937 c -3.608,0 -8.539,0.12 -11.426,3.007 -3.126,3.127 -3.126,9.26 -3.126,11.666 z"
             style="fill:#ffffff;fill-opacity:1;fill-rule:nonzero;stroke:none"
             id="path335" /></g></g></g></g></svg>
